/* XPM */
static char *_aadaf1929bb41bdb6dbc42725e81a5bo9Ma0qSfYf00FEx4[] = {
/* columns rows colors chars-per-pixel */
"64 64 142 2 ",
"   c #741212",
".  c #6A1010",
"X  c #761212",
"o  c #620F0F",
"O  c #460B0B",
"+  c #380808",
"@  c #3D0909",
"#  c #4D0C0C",
"$  c #5A0E0E",
"%  c #570D0D",
"&  c #470B0B",
"*  c #490B0B",
"=  c #4B0B0B",
"-  c #510C0C",
";  c #5F0E0E",
":  c #681010",
">  c #6D1111",
",  c #7D1313",
"<  c #851414",
"1  c #7F1313",
"2  c #530C0C",
"3  c #3E0909",
"4  c #390808",
"5  c #450A0A",
"6  c #590E0E",
"7  c #630F0F",
"8  c #560D0D",
"9  c #3C0909",
"0  c #2B0606",
"q  c #250505",
"w  c #2C0707",
"e  c #610F0F",
"r  c #660F0F",
"t  c #6C1010",
"y  c #731111",
"u  c #711111",
"i  c #300707",
"p  c #230505",
"a  c #1F0404",
"s  c #200404",
"d  c #260505",
"f  c #420A0A",
"g  c #5E0E0E",
"h  c #801414",
"j  c #5C0E0E",
"k  c #460A0A",
"l  c #3A0909",
"z  c #430A0A",
"x  c #600F0F",
"c  c #600E0E",
"v  c #6C1111",
"b  c #3F0909",
"n  c #410A0A",
"m  c #4C0C0C",
"M  c #550D0D",
"N  c #671010",
"B  c #5D0E0E",
"V  c #4E0C0C",
"C  c #661010",
"Z  c #500C0C",
"A  c #3B0909",
"S  c #530D0D",
"D  c #5B0E0E",
"F  c #220505",
"G  c #240505",
"H  c #821414",
"J  c #891515",
"K  c #520C0C",
"L  c #6E1111",
"P  c #480B0B",
"I  c #590D0D",
"U  c #400A0A",
"Y  c #4F0C0C",
"T  c #691010",
"R  c #791212",
"E  c #310707",
"W  c #2F0707",
"Q  c #320707",
"!  c #7E1313",
"~  c #8C1515",
"^  c #540D0D",
"/  c #771212",
"(  c #7A1313",
")  c #400909",
"_  c #280606",
"`  c #2A0606",
"'  c #721111",
"]  c #8B1515",
"[  c #861515",
"{  c #650F0F",
"}  c #731212",
"|  c #370808",
" . c #340808",
".. c #701111",
"X. c #791313",
"o. c #7C1313",
"O. c #811414",
"+. c #831414",
"@. c #781212",
"#. c #881515",
"$. c #330808",
"%. c #2C0606",
"&. c #2D0707",
"*. c #7B1313",
"=. c #841414",
"-. c #751212",
";. c #350808",
":. c #440A0A",
">. c #330707",
",. c #640F0F",
"<. c #390909",
"1. c #2E0707",
"2. c #580D0D",
"3. c #260606",
"4. c #931717",
"5. c #951717",
"6. c #901616",
"7. c #911616",
"8. c #1B0404",
"9. c #8E1616",
"0. c #8F1616",
"q. c #190303",
"w. c #200505",
"e. c #8C1616",
"r. c #801313",
"t. c #8A1515",
"y. c #961717",
"u. c #981717",
"i. c #8D1616",
"p. c #210505",
"a. c #931616",
"s. c #360808",
"d. c #4C0B0B",
"f. c #4A0B0B",
"g. c #6B1010",
"h. c #6F1111",
"j. c #861414",
"k. c #971717",
"l. c #991818",
"z. c #1E0404",
"x. c #1C0404",
"c. c white",
/* pixels */
"  . .   X o O + @ # $ % # O & * = - ; : : > , < 1 . 2 3 4 5 6 7 8 9 0 q w 5 e > : r t y u ; 5 i p a s d i f g X h X j k l z j u ",
". x c v u ; 5 4 b # 2 & l 4 n m - M e r ; $ e . t N B 2 V % C > r Z n A n S C C D % c v t M A 0 q F G w @ M u H J 1 C * 4 A K : ",
"N c e > L g & b P % I * l 4 U k P # $ e % O U 5 Y B T v v L   R   7 % S 6 N > r M S ; > > 6 b E W i Q 3 - : ! J ~ < u ^ n n S r ",
"v u / (   e V & - x C D # * k 3 4 ) K ; M A _ ` 4 K v , H h ! ( ' c 2 K ; L X > e g : X / N K k f f & S r / < ] ~ ] ! : I M c : ",
"> ! J [ ( : M m 2 { u } t o 2 b Q | m B M 4 G p  .# . 1 H , / ..o = A @ Y : X.o.  ..  , O./ : 6 V = S r   , +.+.< J < @.. o e r ",
"T , #.+.X.t 6 m V ;   H H @.e k $.4 m j M 3 Q + 5 M .   L o B $ V l %.&.n e *.=.O.X.X X.h h } g * 5 V C R ! ( }   o.H ( > c 6 j ",
"r u @.X.-.. % O 5 ^ L H #.1 : # l A # c j Y # M j e : o M k n k f | 0 w n e X.H , y . v -.( ..^ A ;.:.x X.! y r e v / X . ; 6 D ",
"D ; T } / v M n 3 # N ( h o.> M z ) Y o T N : : e $ I - z | ;.9 U 4 i >.O e } } t e j j N ..: V ;.&.3 g X.h y o g ,.t . N r e ; ",
"* m D u o.' 6 z 3 m ,.  X.X.} x # :.# e y / } ,.- f n f b <.A U n | i >.k I ; D % S K - 6 r N S @  .n g / h / t r e ; $ D x x ^ ",
"l 3 S ..1 / ; & b = j . L u u C K f 5 M v / ..I 3 i >.3 & = # m 5 | 1.E A 5 z n 5 * * P V g C D & A 5 D } *.-...> ,.^ * m 2 2 O ",
"l n I   H / g 5 <.U # M 6 ; r c # <.| z $ t C Y 4 i | O S $ $ M # U 4 | 4 ;.1.1.+ f k k = 6 o j = 3 z M . v e e : r 2 5 5 # V 5 ",
"= - N , H y ^ <.&.Q A f k = 2 2 O | &.;.P 6 2.* @ @ P % j % S 2 M S - * n $.` _ i <.n k = S 6 S & 3 f ^ C ; # # c ,.S k & 2 6 K ",
"e r -.h , : * >.` %.;.A 3 f & = O A Q Q A k 5 n f V g r j = f = x ..L e Y @ i w w Q l 5 = = = O z :.# g r S b z 6 ; V n O % r r ",
"> ..@.( > % b i 0 1.| @ n 5 * V K = n + ;.$.>.$.) S : > x V 5 - > H 1 T K b 4 ;.E Q <.5 5 3 4 4 3 * $ : N # 4 n % 6 5 + b M t u ",
"X X @.L D 5 $.w &.Q ;.A 5 V M j e c S f ;.%.3.0 4 # o u y T c r X h   6 n | 4 A A 3 5 & ) >.&.i <.P $ : r # A k 6 M f | 3 M > X ",
"< #.1 t K l w ` w &.&.;.O j . u u > ,.K 3 i 3.3.&.A 2 t ! =.h o.o.-.; f w 3.i 3 * S $ % P <.>. .4 b = $ c M = 2 e g # b 5 % u h ",
"4.5.J } I n  .E E %.0 Q m T ! H X.} > o S n >.0 d %.U c 1 6.7.] h t V E a 8.d l 2 N   u e 2 = z A ;.4 & $ e e r . C % * & M > =.",
"9.0.#.*.: ^ & z 3 + >.3 6 X J J h X }   L D z i q 3.l $ ( 9.7.~ 1 N O %.8.q.w.;.S } < #., } : 6 k ;.$.f % : > t : o % & n & g X.",
"h =.O.1 -.N g $ I 2 Y 6 > +.e.e.[ ! *.+.+...- 4 w Q 5 e ( J #.h X e 5 &.F s 3.4 ^ } #.6.9.J ! . M 5 ) & M x o g M - & A ;.<.# . ",
", +.r.*.u N e r > u } X.+.t.~ ] ~ J [ t.] @.$ f A k 6 L 1 +.o.u : 6 O | E >.A * ; ..( < ~ ~ h u e M K - V # P 5 3 A 4 E 1.;.P r ",
"O.=., L ; K - ; } +.~ 0.0.[ 1 o.=.] J < #.1 : ^ - $ :   ( (   C 6 V * O P V % r ..} y / h h -.: e ; D - f | E i &.1.i i Q @ K v ",
"+.H   ; & 4 l # t #.y.u.i.X o ; t @.( ( H < ( . o o ,.r C t v c # :.* M c r > X.H h ( X.X.  C D I 6 6 # <.%._ 0 w E ;.+ A * c -.",
"H o.. K l &.i 5 r h 9.9.! c z 9 P D N u h ] < / : j M K % x N g P 3 P ; v y @.+.~ ~ ] < ( T I m O * # & <.Q >.l b k P * # 6 t o.",
"@.> $ 5 | E 4 = e } / -.C = i d i O j L ( H h   r 6 M 2.; C : ; = b & g u / 1 #.9.6.7.J X c m 3 + A f 5 f 5 # I ; o r o o : y @.",
"r 6 k | Q <.& 6 r C C C g & &.p.` z g . t . . . : N . > > > v e V b f ^ C u X.H ] ~ [ ( : M 5 + i >.A f * S o u / ( , o.  v : T ",
"Y & 4 0 w A - o : : v } ..j b ` &.& c c S = V 6 : } /   t N C g = A <.k - $ N X h 1 u ; K * 5 <.i &.$.b = % : / H < J #.X.,.S Y ",
"U n ;.` _ ;.* c L / +.e.t.X ^ <.+ V ; M n ;.4 O j t > C j 6 6 M P A | 4 <.n 2 N } t % z l b 5 b E ` w 4 k 2 x u , =.t.#.  I f A ",
"U k 3 i _ w 3 % L H 7.u.a.1 c 5 b K ; 2 l w w + * M % - # # V - V & b | 1.>.& ; C j O ;.Q A k f >.3.0 + O S c T y o.+.=.u S @ 4 ",
"# S # l &.0 | V : , ~ 7.] / $ 5 f 2 D Y 4 0 3.i 9 k n b f k P - D j - U  .+ = c e S f + s.b & k 4 w i @ Y ; : t v u X.( v % & 5 ",
"r : x # A $.4 & I C -.h 1 > M O & M 2.& >.` ` E A 3 4 | @ 5 P S ,.T ; m U O $ T : 6 = z n 5 * & 3 >.;.f I v X X y u u v o 6 % j ",
"/   v ; Y 5 f z 5 * % T } t j V Y % S f Q 0 &.4 z U + + f = V M e C D m O Y r   } ,.M Y = * * P f <.A & B y h h o.  : D S % o u ",
"-.t ,.c I V 5 A | | f S o r g 2 V K V k b 4 | A n ) l b # % M M $ 6 V 5 :.Z N R ( L c I I % S Y = * d.6 . X.H H X.t $ d.f.% T X ",
"7 S m # Y P @ >.&.>.<.5 * d.m & 5 k # ^ 6 Y f l A A U # ; r g % M 2 P f k ^ T R R . c g C g.C B % 2.x . y / X u C M O b O I . L ",
"S z A b k f ;.%.&.| @ A ;.$.4 @ ) k ^ : L ,.Z f U 5 - e u y C ; ; $ - m 2 o } @.h.B 2 6 g.X.@.v e ,.v ' u T e 6 Y n ;.$.3 K x x ",
"2 & n 5 = P A E ;.b :.3 Q i | n * S r / ! y x % % D o L / y r e T t o c N } ( -.e # 5 Z : , 1 } r o : : ; K P & O U + >.| z - M ",
"j j M M D $ # b @ f P P n b 5 # % e } O.j., -.y u t : C r j K M : -.-.u u -.} C 2 f U Y N X.X.. $ S S - 5 | >.A O = k l $.4 z 2 ",
"t ..N x e r $ & A 3 * % D 6 I 6 c g./ , 1 O.=.+., v $ # 5 3 | b 6 y ( / u . e S O b 5 % .   t D = n @ <.W q 3.| & K K & A 4 z I ",
"/ X.> e e C D 5  . .& e h.v 7 B x . ' > ..X.H h -.c & ;.w 3.q 1.& C X., } ,.% = O O - x v > x 2 z + Q &._ q 0 4 k V 2 - = P K ,.",
"h =./ T r ,.^ 3 w Q * C } v ; S 6 N v N r t > N g V A 0 G G 3.i f c X.+.X.: $ S S $ o . . r j S & A >.&.%.&.| @ b n & S $ j e u ",
"t.9.#.o.u e = ;.&.<.2 : > e - P 2 r L t ,.g 2 k b @ + &.%.i + b P ; / H X.: g ; : y X ' r D I 6 M * l E E 4 n U + >.A K { v y , ",
"7.k.5.] / j U &.&.f ; > : % O f - C -.u c # <.0 0 $.@ 3 b & K S S D T L N 6 M ; L ( ( ..; 2 2 ; r j O | >.A 5 f ;.1.+ Z T / , < ",
"7.l.l.9.X % l 0 E = :   N - n f S t / > S <._ w.d + m % g r > T B ^ S K m k O ^ r v : ; S # 2 r   v K <.Q <.k & U l U K : @.! < ",
"~ u.u.t.} 6 f | A S > X T K f 5 M t   C = Q q q E k c y o.h H @.{ Z U + + 4 b = M M # & & m 6 > o.} M <.&.| & M I S Y S c v   ! ",
"h ~ 9.[ / : 6 V V $ : L : M k 5 K r L r V <.E >.@ Y : 1 J ] #.1 v Z | 0 i A k V - O <.| b V e } ( u % <.&.| # r u v e % S M ; > ",
"> , H H ! X.} : c 6 M j e 6 = 5 # x > t ; V n <.@ * c X h O.! , y 6 3 E <.= $ c $ O >.w | = o y -.> 6 n | b 6 ' ! X.v 6 & b z M ",
"; ..} } / h H / e * @ k % D S # 2 e > L T ; # @ | @ - o . T g.-.X N K O V c L y N Y + 0 E k c u   > D k b = ,./ X.  > g 5 Q E 5 ",
"% e D M g u 1 X.j A w | Y c r o r . t t . C % f | A m I 6 ^ 2.{ ..> c % j . X X . ^ A i ;.O ; L   . M n A = r ' t r N e = ;.E n ",
"6 S f 4 n j     6 4 &.4 - :   X.X.X u t > > e - 5 * I B 8 m = M c e 6 - S e v . B = 3 A f - ; N : ; = 4 ;.5 c . e 6 o : j * 5 # ",
"e - | ` Q V : . ^ ) ) # c L o.H +.h ( / / / > j S $ N : D V * V 2 - 5 l @ # D I O <.<.k S $ 6 % % S & <.| 5 D . r ; :   } N e r ",
"..% A &.;.# o e ^ - 2.x C t u X X.( o., 1 o.v 6 - 6 N v o % - - V & 4 w &.U V * 4 w >.P g e % # = V # O 5 V x L ... L ( h 1 , ( ",
"o.C # b f 2 e e ; e C x 2.M 6 g r t } @.o.  ; & b & 6 : : o $ M - & 4 1.1.3 = & 4 &.$.= x r 6 = * V K - S ; v X } : r > X.H [ < ",
"H -.7 Y & Y D e : > : % k b 5 d.S j r > } N Y <.i <.V C u u : ; S m z 9 l z = = n <.A P $ e 6 V P & & d.6 t X.o.t I V S ,.-.h =.",
"r., T - b @ O S e t : S b | @ & = V ^ ; e % f ;.Q l Y N X.( L j V * * & 5 k & * P :.b b = S K & n l | 3 S ..H o.o & A b - ,.u @.",
"*.*.N & i _ &.l m ; C $ & b 5 P k ) n * = f + ;.A 5 2 ,.-.X.: Y n ) f 5 5 f 5 P # P 3 | A O & b | E &.| V > h X j z + A = j r h.",
"X.@.e n _ z.z.d <.M : N 6 K S - f | >.4 4 i w >.z # K $ : > c k ;.Q >.| <.3 f P V d.) ;.| n 5 b 4 $.;.3 - N   . % & z P I ,.T ..",
"( -.g b ` a x.G <.M > u C x x 6 P <.| <.| w 0 ;.P K Y V % e ; # l 1.w &.Q 4 b 5 = d.5 A <.z m = & & * V S 6 g D M S % c v ' u -.",
"  > 6 b &.3.0 >.& c L v x $ ; ; % # m Y * 3 + U Y S * n 5 2 ; 6 k >.%.w i | | 4 b & & n b * 6 e o o o g K & k = S j ,.v } -.u u ",
"t C 2 A 1.i A = c h.u c = 5 # $ ,.C . > T D Z V S - f >.>.k $ B = ;.0 w ;.4 Q i | k = & O S . @.X.-.L o # <.;.b V 2.j c N t : : ",
"t o = >.` E k ; } , } % A >.b % t @.1 j.H ' ; K V P A i i z D x m >.0 E @ f A | 3 V % M M o X.+.! } T j P | >.@ & * k 5 V c : . ",
"> g & >.0 $.= r o.[ X.$ 3 >.3 M v *.H J [ @.x # k 5 b <.A V 7 C S 3 + b # S - = K g ,.o r u 1 1 u e 6 K 5 l @ & = n Q w l ^ t   ",
"N S k A + b - N ( #.=.v 2 k & ^ e v X 1 h X c # O * * O P % T h.7 2 # ^ ; ,.x c o C r e r u X v 6 = & 5 3 A 5 K 2 n w G E - >   ",
"c V P = # - % o y +.] r.v D 2 V V % r } @.  : D M ^ Y O k 2 N ' v x j ; x c o : v . e 6 g N r S b ;.;.+ >.;.5 M 6 & Q d E V . ..",
"r % % c o ; M M c   =.H -.r M & b k 6 t } X X } v c # A + O B . r I Y # * # D . } ..: x e ,.I U %.G _ w 0 i 5 6 e S 3 i | Y T u ",
"u C : y   r V z * g L u N D - k b 5 % T L X H #.1 : m s.i b M e % U >.1.Q n j ..} u ....> ,.V | G a F 3.0 ;.# r L r V @ A # N X "
};
